<?xml version="1.0" encoding="utf-8"?>
<!-- Generator: Adobe Illustrator 21.0.2, SVG Export Plug-In . SVG Version: 6.00 Build 0)  -->
<svg version="1.1" id="_x31_" xmlns="http://www.w3.org/2000/svg" xmlns:xlink="http://www.w3.org/1999/xlink" x="0px" y="0px"
	 width="787.062px" height="595.276px" viewBox="0 0 787.062 595.276" enable-background="new 0 0 787.062 595.276"
	 xml:space="preserve">
<g>
	<g>
		<path fill-rule="evenodd" clip-rule="evenodd" fill="#FFFFFF" d="M687.723,423.9l12.078-68.927l13.739-18.321
			c0,0-27.396,7.723-71.218,2.727c-10.148-1.157-19.263-2.768-27.281-4.559c1.576,1.327,2.983,2.883,4.143,4.614
			c2.643,3.945,4.056,8.814,3.363,14.003c-0.188,1.408-0.532,2.836-1.05,4.269c-3.635,10.063-6.913,20.426-10.137,30.836
			c2.742-3.797,5.434-7.517,7.523-10.314c2.85-3.818,6.084-5.905,9.796-6.251c3.624-0.338,7.223,1.075,10.884,4.25
			c1.968,1.703,2.212,4.659,0.571,6.659l-7.367,10.101c-8.329,11.422-16.662,22.849-24.503,33.574
			c3.057,0.758,6.304,1.464,9.705,2.103h17.145c1.456,0,2.723,0.81,3.376,2.003c1.797-1.335,4.119-2.003,6.966-2.003h3.435
			c2.847,0,5.169,0.669,6.966,2.003c0.653-1.194,1.919-2.003,3.375-2.003h17.177c1.081,0,2.057,0.446,2.756,1.164
			C684.327,428.406,687.439,426.397,687.723,423.9L687.723,423.9z M711.511,98.301l12.682-33.559l53.901-45.154
			c0.085-0.05,0.165-0.108,0.238-0.175l0,0c1.377-1.267-0.06-5.075-3.21-8.502c-3.152-3.426-6.824-5.177-8.204-3.91l-0.012,0.012
			l-0.014-0.015L709.451,55.42l-14.858,40.127c-7.473-1.07-15.176-2.117-22.731-2.978l-0.167-0.019
			c-53.98-6.154-98.442-4.992-99.307,2.595c-0.865,7.588,42.194,18.729,96.174,24.883c53.98,6.154,98.441,4.992,99.306-2.596
			c0.637-5.587-22.548-13.102-56.373-19.132L711.511,98.301L711.511,98.301z M704.219,117.073L704.219,117.073
			c0,0-1.942,0.208-7.514-0.403c-5.573-0.612-9.522-1.122-10.934-2.737c-0.38-0.434-0.525-1.225-0.463-1.743
			c0.117-0.985,0.883-1.487,1.817-1.749l0.693,1.419c-0.381,0.085-0.608,0.211-0.627,0.37c-0.088,0.748,5.552,1.911,9.918,2.353
			c4.366,0.443,9.675,0.685,9.764-0.053c0.026-0.223-0.349-0.479-1.023-0.724l0.989-1.218c1.09,0.48,1.999,1.27,1.863,2.442
			C708.462,117.024,705.891,117.038,704.219,117.073L704.219,117.073L704.219,117.073z M711.511,98.301L711.511,98.301
			L711.511,98.301L711.511,98.301z M704.722,254.113L704.722,254.113c-0.138,13.893,23.546,4.254,31.372-1.802l-17.435,76.423
			c0,0-20.745,12.155-76.262,5.826c-55.516-6.33-72.285-22.992-72.285-22.992l0.389-38.391c1.485-1.918,2.952-3.817,4.418-5.715
			c2.092-2.708,4.183-5.416,6.277-8.116c1.64-1.942,1.481-4.85-0.4-6.6c-0.283-0.264,0.174,0.169-0.25-0.215
			c-3.18-2.881-6.445-4.327-9.762-4.347h-0.029l0.043-4.236c12.603,8.07,24.546-3.97,30.805-8.55
			c-0.05,3.597-12.18,22.776-6.371,25.369c5.807,2.595,10.226-13.703,16.826-28.877c5.876-13.515,14.101-28.621,8.38-30.904
			c-5.72-2.283-9.293,12.856-12.583,17.727c-4.671,6.917-30.147,29.101-30.763,10.412c-0.484-14.659,18.919-41.741,27.244-48.216
			c4.174-3.248,10.372-5.979,14.425-4.445c5.617,2.124,4.975,12.157,9.891,12.436c11.614,0.658,0.359-20.309-9.673-21.979
			c-18.432-3.069-34.001,19.104-43.199,35.909c0.868-2.758,1.103-5.534,0.811-8.198c-0.42-3.827-1.944-7.396-4.258-10.328
			c-0.294-0.373-0.601-0.735-0.92-1.087l0.814-80.226c0,0,10.611,12.043,94.569,21.615c83.956,9.572,98.398,0.156,98.398,0.156
			l-26.557,116.408c-5.497,5.883-17.462,11.678-24.452,11.788c-7.17,0.113,23.219-14.67,19.92-27.678
			c-2.784-10.988-20.502-2.234-25.49,2.313c1.448-3.042,2.675-7.113-1.779-7.901c-4.452-0.787-5.62,12.215-13.245,19.32
			c-7.625,7.105-11.218,6.84-18.365,8.49c-7.147,1.65,11.085-28.836,21.727-47.334c2.268-3.941,7.66-14.593,2.844-16.813
			c-4.815-2.221-13.789,18.706-23.068,35.273c-9.28,16.568-9.125,21.898-11.584,24.016c-3.8,3.275-9.551,4.301-10.793,3.118
			c-6.159-5.856,14.788-29.436,9.884-32.254c-4.904-2.818-13.517,15.869-16.102,18.581c-0.307,0.322-14.149,15.009-18.18,11.149
			c-2.353-2.253,2.595-11.385,6.801-18.618c1.912-3.287,8.724-11.536,4.126-14.058c-4.597-2.523-28.448,34.377-16.704,40.46
			c8.943,4.632,17.71-3.063,21.881-8.814c-3.232,14.374,11.05,12.962,18.205,8.166c2.751,11.918,19.89,1.481,24.543-1.178
			c-5.14,12.027-20.806,31.48-15.383,35.277c5.424,3.798,17.147-20.694,20.405-26.379c8.891-15.513,17.621-30.298,31.686-29.503
			C731.95,229.839,704.834,242.943,704.722,254.113L704.722,254.113L704.722,254.113z M571.318,192.589l-0.088,8.69
			C572.146,198.292,572.102,195.305,571.318,192.589L571.318,192.589z M570.705,252.971l-0.124,12.269
			c2.316-2.998,4.63-5.995,6.948-8.983C575.163,254.057,572.881,252.964,570.705,252.971L570.705,252.971z M598.702,330.544
			c-16.151-4.888-24.783-9.61-24.783-9.61l10.448,22.885l-0.229,4.971c1.31-2.051,2.651-4.111,3.992-6.172
			c1.534-2.357,3.069-4.714,4.645-7.204c1.474-2.328,3.27-3.82,5.401-4.675C598.351,330.669,598.526,330.605,598.702,330.544
			L598.702,330.544z M583.685,358.626c0.468-0.778,0.938-1.555,1.41-2.33c3.777-6.193,7.854-12.199,11.734-18.329
			c1.79-2.829,4.153-3.539,7.208-3.131c8.587,1.147,16.701,10.882,12.954,21.256c-6.177,17.101-11.205,34.604-16.708,51.941
			c-0.418,1.318-0.763,2.658-0.394,4.404c3.535-4.844,7.075-9.685,10.604-14.534c4.078-5.602,8.092-11.254,12.237-16.804
			c4.016-5.379,8.429-5.818,13.697-1.25c-11.033,15.125-22.063,30.267-33.128,45.388c-13.793-3.958-22.573-8.979-22.061-13.477
			l0.614-13.337c2.135-6.976,4.198-14.016,5.867-21.276c-1.709,2.358-3.478,4.677-5.211,7.019L583.685,358.626z"/>
	</g>
	<path fill-rule="evenodd" clip-rule="evenodd" fill="#FFFFFF" d="M221.385,583.47c-4.35-0.671-8.918-0.727-13.009-2.128
		c-12.79-4.379-19.944-18.837-16.144-32.461c0.699-2.506,2.7-5.102,4.765-6.747c6.727-5.357,13.869-10.145,20.61-15.484
		c1.955-1.549,3.688-4.018,4.509-6.401c3.043-8.824,5.674-17.785,8.429-26.704c0.354-1.148,0.529-2.349,0.036-3.838
		c-5.242,7.897-10.469,15.805-15.732,23.688c-2.955,4.426-6.292,8.629-8.869,13.265c-2.646,4.757-6.292,5.343-10.628,4.373
		c-4.421-0.99-7.659-3.595-7.929-8.496c-0.234-4.236,0.312-8.55-0.18-13.639c-0.707,1.44-1.268,2.979-2.144,4.303
		c-4.542,6.857-9.395,13.515-13.674,20.533c-2.632,4.316-5.923,4.726-9.975,3.911c-4.445-0.894-8.004-3.064-8.172-8.101
		c-0.141-4.235,0.078-8.705,1.218-12.79c3.023-10.836,6.634-21.519,10.002-32.265c0.552-1.762,1.056-3.538,0.69-5.816
		c-1.224,1.563-2.486,3.097-3.666,4.694c-13.388,18.118-23.356,38.228-33.185,58.402c-1.658,3.404-2.932,6.112-7.457,5.43
		c-5.921-0.893-10.097-2.932-10.175-7.596c-0.1-5.942,0.34-12.225,2.09-17.912c6.483-21.069,13.72-41.917,20.439-62.919
		c5.392-16.856,10.561-33.782,15.54-50.758c0.904-3.081,2.278-3.413,4.669-3.01c9.553,1.61,16.943,11.864,12.797,22.124
		c-6.566,16.247-11.417,33.176-16.988,49.818c-0.644,1.924-1.249,3.861-2.39,5.266c5.332-7.319,10.606-14.682,16.016-21.94
		c3.363-4.512,6.939-8.858,10.408-13.288c2.279-2.911,5.089-3.429,8.375-2.594c4.833,1.228,8.652,3.837,11.258,8.17
		c2.097,3.486,2.775,7.066,1.198,11.316c-3.351,9.035-6.328,18.205-9.592,27.708c11.894-8.962,19.544-24.656,26.871-54.603
		c12.169-1.624,20.628,8.983,16.579,20.756c-4.085,11.878-8.139,23.766-12.19,35.655c-0.445,1.305-0.779,2.646-0.527,4.262
		c6.08-9.584,11.716-19.5,18.348-28.667c8.78-12.136,12.892-25.749,15.342-40.464c6.401-0.777,11.475,1.569,15.45,6.233
		c3.718,4.362,5.091,9.262,2.836,15.385c-4.091,11.104-7.671,22.391-11.083,33.75c10.67-13.25,21.751-26.199,24.186-43.993
		c-7.799-3.463-9.603-7.161-6.582-16.101c1.581-4.678,3.707-9.358,6.437-13.449c6.179-9.257,17.481-10.104,25.1-2.409
		c-2.629,5.708-5.244,11.386-7.86,17.064c0.34,0.414,0.679,0.827,1.019,1.241c3.333-2.543,7.153-4.63,9.895-7.727
		c5.06-5.718,9.394-4.545,14.894-1.328c6.208,3.631,8.996,10.168,7.104,15.788c-4.407,13.096-8.926,26.156-13.487,39.487
		c15.56-14.958,29.274-42.419,33.965-67.783c9.115-2.378,19.065,6.819,18.53,18.029c1.063-1.761,1.744-2.883,2.419-4.009
		c7.129-11.903,14.159-23.868,21.421-35.688c4.293-6.987,7.87-7.863,14.763-4.273c7.707,4.014,10.427,10.861,7.694,19.69
		c-2.664,8.609-5.44,17.185-8.148,25.781c-0.463,1.469-0.835,2.965-1.589,5.667c6.556-10.149,12.22-19.267,18.255-28.122
		c3.345-4.908,7.313-9.375,10.999-14.042c2.291-2.901,5.211-3.449,8.417-2.581c5.251,1.423,9.807,4.205,11.873,9.418
		c1.156,2.917,1.624,6.875,0.712,9.88c-3.597,11.852-7.869,23.51-11.872,35.246c-0.493,1.445-0.873,2.927-0.608,4.674
		c7.514-10.41,15.758-20.377,22.278-31.388c4.174-7.05,5.805-15.64,8.571-23.542c0.106-0.303,0.133-0.632,0.242-0.934
		c2.306-6.354,2.708-14.18,10.675-16.521c8.913-2.618,16.76,0.097,23.864,5.327c1.094,0.805,2.09,1.747,3.537,2.968
		c0.713-3.267,1.324-6.065,1.945-8.906c11.565-1.922,20.31,8.741,16.401,20.145c-4.107,11.978-8.188,23.966-11.314,36.518
		c7.279-10.021,15.847-19.368,21.475-30.251c5.683-10.99,8.45-23.502,12.611-35.691c8.144-1.662,14.328,3.592,18.085,16.441
		c4.436-7.584,8.622-14.976,13.04-22.221c3.777-6.193,7.854-12.199,11.734-18.329c1.79-2.829,4.153-3.539,7.208-3.131
		c8.587,1.147,16.701,10.882,12.954,21.256c-6.177,17.101-11.205,34.604-16.708,51.941c-0.418,1.318-0.763,2.658-0.394,4.404
		c3.535-4.844,7.075-9.685,10.604-14.534c4.078-5.602,8.092-11.254,12.237-16.804c4.016-5.379,8.429-5.818,13.697-1.25
		c-13.213,18.114-26.423,36.252-39.692,54.348c-0.479-1.079-1.143-2.023-1.993-2.832c-1.891-1.799-4.489-2.702-7.795-2.702h-3.435
		c-3.306,0-5.904,0.902-7.795,2.702c-0.292,0.278-0.563,0.572-0.811,0.883c-0.248-0.31-0.519-0.604-0.811-0.883
		c-0.361-0.343-0.747-0.654-1.159-0.931c1.104-6.335,2.984-12.6,4.852-18.791c3.429-11.368,7.205-22.636,9.931-34.496
		c-3.396,4.686-7.027,9.217-10.148,14.085c-7.78,12.134-15.052,24.547-21.415,37.433h-0.163c-1.456,0-2.723,0.81-3.375,2.003
		c-1.797-1.335-4.119-2.003-6.966-2.003h-10.306c-2.123,0-3.844,1.721-3.844,3.844v20.215c-2.12-2.257-2.901-5.742-2.396-10.588
		c0.326-3.128,0.941-6.236,0.561-9.814c-6.47,8.703-12.983,17.372-19.396,26.119h-2.22c-0.632,0-1.225,0.17-1.735,0.466
		c-0.51-0.296-1.103-0.466-1.735-0.466h-12.854c-0.56-1.417-0.833-3.109-0.815-5.087c0.026-2.822,0.34-5.652,0.593-9.544
		c-1.362,1.783-2.695,3.53-4.007,5.249v-16.551c0-0.576-0.141-1.118-0.389-1.595c3.535-4.565,7.114-9.092,10.838-13.487
		c5.151-6.078,6.528-13.524,9.149-20.522c1.156-3.086-2.811-7.619-6.727-8.778c-4.302-1.273-5.236,1.692-6.394,4.941
		c-4.154,11.668-8.465,23.282-12.703,34.921l-0.386,1.06h-0.284c-1.591,0-2.932,1.074-3.335,2.538l-2.411-0.835l-0.164-0.067
		c-1.784-0.679-3.781,0.216-4.46,2l-11.959,31.289c-0.291,0.765-0.314,1.635,0,2.46l1.732,4.531
		c-3.963-1.713-6.392-5.51-6.236-10.566c0.126-4.088,0.81-8.181,1.332-13.078c-1.249,1.401-2.097,2.214-2.788,3.149
		c-6.41,8.686-13.106,17.179-19.051,26.183c-2.972,4.5-6.481,4.659-10.484,3.986c-4.237-0.712-7.736-3.091-8.071-7.757
		c-0.312-4.354-0.19-9.026,0.984-13.234c3.328-11.918,7.289-23.671,11.009-35.487c0.473-1.502,0.995-2.99,0.842-4.938
		c-2.525,3.366-5.437,6.506-7.509,10.135c-10.305,18.058-20.479,36.194-30.503,54.411c-3.936,7.154-4.329,7.635-10.958,6.135
		c-5.591-1.265-8.716-5.163-8.154-11.261c0.438-4.749,1.307-9.559,2.67-14.151c3.799-12.801,7.959-25.501,11.962-38.246
		c0.474-1.508,0.853-3.045,0.66-5.131c-0.872,0.91-1.879,1.721-2.598,2.742c-15.815,22.491-29.31,46.285-39.412,71.946
		c-1.043,2.65-1.962,4.45-5.196,4.324c-6.343-0.247-10.672-2.472-11.543-7.214c-0.557-3.034-0.198-6.307-0.067-9.472
		c0.075-1.826,0.514-3.651,1.008-6.937c-7.387,9.957-14.191,18.524-20.286,27.584c-3.297,4.901-7.147,4.622-11.402,3.599
		c-4.347-1.045-7-4.222-6.904-8.824c0.094-4.576,0.501-9.347,1.842-13.722c5.371-17.53,11.158-34.939,16.838-52.536
		c-3.998,1.944-8.051,3.684-11.852,5.91c-1.07,0.627-1.603,2.619-2.036,4.081c-5.854,19.743-11.626,39.508-17.463,59.256
		c-3.556,12.031-9.398,16.189-21.967,15.6c2.74-7.35,5.461-14.646,8.181-21.942c-0.339-0.196-0.677-0.392-1.016-0.587
		c-6.568,10.567-16.369,18.816-20.463,31.166c-6.322,19.072-12.713,38.124-19.074,57.183
		C221.996,583.337,221.691,583.404,221.385,583.47L221.385,583.47z M504.581,463.882v-1.982h-10.288
		c0.878,0.677,1.926,1.197,3.142,1.566C500.53,464.403,502.698,464.603,504.581,463.882L504.581,463.882z M484.039,453.593v-18.696
		c-1.146,1.491-2.289,2.984-3.435,4.474v18.723C481.739,456.608,482.883,455.109,484.039,453.593L484.039,453.593z M467.745,471.989
		l-2.594-6.785l11.537-30.173l-3.224-1.116l-11.959,31.289l2.651,6.936C465.485,472.34,466.653,472.3,467.745,471.989
		L467.745,471.989z M593.789,438.215c-0.282-3.798-2.559-5.707-6.841-5.707h-3.435c-4.584,0-6.871,2.187-6.871,6.539v5.491
		c0.988,0.659,2.137,1.149,3.435,1.461v-6.952c0-2.176,1.149-3.27,3.435-3.27h3.435c2.286,0,3.435,1.094,3.435,3.27v3.804
		C591.519,441.306,592.654,439.761,593.789,438.215L593.789,438.215z M573.171,440.067v-1.02c0-1.454-0.256-2.667-0.767-3.637
		C572.411,437.159,572.673,438.715,573.171,440.067L573.171,440.067z M552.282,436.826c-0.697-2.875-2.905-4.318-6.629-4.318
		h-10.306v22.583c1.02,0.344,2.165,0.581,3.435,0.716v-20.03h6.871c2.286,0,3.435,1.094,3.435,3.27v5.07
		C550.118,441.669,551.183,439.239,552.282,436.826L552.282,436.826z M215.244,542.022L215.244,542.022
		c-0.223-0.193-0.445-0.387-0.668-0.58c-2.462,2.657-4.99,5.253-7.369,7.986c-3.108,3.57-2.275,6.218,2.581,7.895
		C211.606,552.224,213.425,547.123,215.244,542.022z"/>
	<path fill-rule="evenodd" clip-rule="evenodd" fill="#FFFFFF" d="M7.955,568.48c12.337-5.299,24.293-10.083,35.972-15.544
		c12.656-5.918,24.439-13.483,33.694-24.537c3.156-3.769,5.789-8.142,7.995-12.572c2.601-5.224,1.135-8.526-4.431-9.296
		c-6.512-0.9-13.214-0.616-19.805-1.105c-5.669-0.42-11.416-0.718-16.926-1.917c-18.422-4.008-24.806-16.947-17.479-35.254
		c5.95-14.868,15.24-27.705,25.198-39.958c11.766-14.477,24.002-28.578,38.78-39.949c11.396-8.768,23.187-8.906,34.053-1.246
		c8.357,5.892,10.422,14.197,8.812,24.115c-2.75,16.939-10.603,31.634-20.442,45.41c-0.618,0.865-1.579,1.733-2.533,2.052
		c-11.504,3.851-23.004,4.766-34.797,1.337c5.987-5.481,12.194-10.135,17.131-15.931c7.04-8.265,13.376-17.207,19.515-26.211
		c1.875-2.751,2.668-6.626,2.984-10.042c0.617-6.678-3.693-9.359-9.479-6.142c-2.325,1.293-4.598,2.906-6.508,4.794
		c-17.185,16.985-32.736,35.39-44.582,56.728c-8.848,15.938-5.518,22.95,11.609,25.395c5.458,0.779,11.082,0.574,16.555,1.286
		c16.414,2.133,23.932,15.931,17.551,32.072c-4.356,11.019-11.846,19.91-19.441,28.662c-12.62,14.542-27.181,26.566-43.3,36.735
		c-5.947,3.752-10.932,3.613-16.292,0.175C14.799,583.055,10.061,576.848,7.955,568.48z"/>
	<path fill-rule="evenodd" clip-rule="evenodd" fill="#FFFFFF" d="M30.517,307.346c0.026-8.211,4.009-14.365,9.667-19.645
		c19.148-17.867,40.58-31.615,66.294-37.368c8.817-1.973,16.585,2.808,19.329,11.584c0.65,2.079,0.593,4.751-0.084,6.821
		c-3.194,9.76-6.718,19.405-10.121,29.091c-0.344,0.98-0.672,1.966-0.411,3.13c7.482-13.983,14.762-28.084,22.504-41.914
		c7.08-12.648,14.604-25.037,22.057-37.462c1.857-3.096,4.084-5.981,6.337-8.799c2.944-3.682,5.819-7.714,11.531-6.077
		c6.228,1.785,11.113,5.349,12.967,11.86c0.674,2.366,0.352,5.398-0.479,7.765c-9.73,27.727-19.645,55.384-29.499,83.064
		c-0.557,1.564-1.002,3.17-1.065,4.909c6.095-11.108,11.945-22.367,18.354-33.281c6.301-10.728,13.06-21.18,19.846-31.597
		c2.392-3.673,5.297-7.039,8.253-10.271c5.599-6.122,9.255-6.483,16.393-2.07c6.202,3.834,9.028,10.614,6.777,16.976
		c-11.751,33.21-23.576,66.391-35.366,99.587c-0.773,2.174-1.469,4.378-1.736,6.82c9.512-13.766,23.045-24.455,27.728-41.792
		c2.959-10.951,7.768-21.361,11.633-32.058c1.446-4.002,2.742-8.081,3.803-12.209c1.562-6.077,1.975-6.407,7.74-4.343
		c9.166,3.282,13.3,11.999,9.957,21.168c-4.258,11.68-8.584,23.335-12.131,35.596c0.943-1.033,1.952-2.011,2.819-3.107
		c5.655-7.146,11.121-14.458,16.998-21.408c2.111-2.497,5.228-4.088,7.801-6.201c0.894-0.734,1.862-1.669,2.234-2.723
		c9.664-27.389,19.254-54.806,29.124-82.982c5.323-0.383,10.076,2.427,13.952,7.16c3.396,4.146,4.914,8.532,2.813,14.045
		c-4.361,11.449-8.318,23.062-11.873,34.977c3.374-3.327,6.81-6.591,10.106-9.998c3.182-3.29,6.173-2.956,9.218,0.191
		c1.645,1.7,3.329,3.36,4.984,5.05c5.805,5.926,6.892,12.709,3.224,20.051c-7.206,14.424-16.577,27.086-29.398,36.839
		c-0.846,0.644-1.691,1.289-2.843,2.168c3.988,5.508,7.847,10.837,12.225,16.881c7.162-10.95,17.049-19.31,21.505-31.533
		c9.358-25.669,18.481-51.429,27.552-77.208c2.304-6.547,4.288-13.24,5.948-19.99c0.852-3.465,2.413-3.729,5.325-3.017
		c8.538,2.087,16.533,12.338,12.035,22.72c-6.76,15.602-11.861,31.966-17.653,48.011c-0.729,2.021-1.37,4.076-2.611,5.525
		c5.468-6.942,10.879-13.932,16.425-20.807c3.445-4.271,7.103-8.362,10.652-12.545c2.336-2.753,5.171-3.065,8.453-2.022
		c4.834,1.536,8.627,4.382,11.177,8.863c2.052,3.606,2.667,7.21,1.021,11.335c-3.5,8.768-6.623,17.696-9.457,26.861
		c5.234-6.551,12.586-11.158,15.368-19.845c3.131-9.778,6.888-19.341,10.321-29.017c3.148-8.874,8.081-11.81,17.272-10.344
		c7.333,1.169,13.522,4.572,19.128,10.481c0.844-3.438,1.544-6.289,2.245-9.141c8.333,0.081,14.127,3.943,16.638,11.778
		c0.75,2.34,0.8,5.382,0.009,7.674c-4.269,12.358-8.904,24.581-13.558,37.249c12.264-7.51,28.792-38.275,34.641-63.916
		c11.537-1.355,20.704,10.222,16.713,21.176c-4.42,12.132-8.918,24.233-12.899,36.653c6.812-9.703,16.546-17.055,20.609-28.878
		c6.725-19.572,13.797-39.017,20.594-58.563c2.017-5.802,3.6-11.764,5.409-17.742c11.038-1.212,19.783,9.751,15.955,20.448
		c-8.784,24.54-17.654,49.047-26.478,73.572c-0.83,2.308-1.581,4.647-1.438,7.506c4.81-6.055,9.612-12.116,14.434-18.161
		c2.351-2.947,4.614-5.981,7.138-8.766c3.848-4.248,8.197-4.224,12.875,0.125c-6.998,9.018-13.951,18.116-21.052,27.091
		c-7.994,10.103-16.322,19.936-24.093,30.214c-3.159,4.178-6.576,3.886-10.663,2.667c-4.399-1.312-7.028-4.214-7.157-8.907
		c-0.09-3.283,0.389-6.577,0.682-10.864c-5.789,7.2-11.13,13.787-16.41,20.424c-4.803,6.037-6.973,6.765-13.39,4.275
		c-4.981-1.933-6.923-5.811-6.341-12.889c0.216-2.625,0.613-5.233,0.069-8.298c-6.452,8.062-13.275,15.85-19.212,24.293
		c-3.428,4.875-7.299,3.795-11.456,2.739c-4.481-1.138-6.765-4.54-6.936-9.097c-0.122-3.27,0.397-6.56,0.702-10.854
		c-5.919,7.144-11.311,13.597-16.642,20.103c-5.668,6.916-8.291,7.833-14.823,5.002c-5.097-2.21-7.154-6.729-6.505-14.399
		c0.131-1.552,0.397-3.091-0.415-5.332c-5.149,7.393-10.496,14.652-15.369,22.232c-2.826,4.395-6.247,4.982-10.755,3.583
		c-6.277-1.948-9.041-5.831-7.847-13.101c1.02-6.214,2.718-12.352,4.635-18.347c2.817-8.808,6.097-17.458,8.229-26.833
		c-1.245,1.446-2.538,2.852-3.729,4.343c-13.613,17.035-23.804,36.277-34.096,55.465c-1.152,2.147-3.023,5.155-4.866,5.387
		c-4.293,0.542-8.721-0.559-11.67-4.553c-0.74-1.002-1.207-2.214-1.988-3.686c-1.772,2.141-3.758,3.991-5.081,6.249
		c-3.04,5.188-7.473,7.13-13.204,6.965c-6.866-0.199-13.511-1.066-18.085-7.096c-3.02-3.982-5.597-8.314-8.75-13.058
		c-2.471,6.645-4.688,13.14-7.327,19.448c-1.072,2.564-0.398,6.994-5.051,6.692c-4.892-0.318-10.047-0.916-12.214-6.252
		c-1.129-2.779-1.448-6.316-0.926-9.278c1.196-6.789,3.133-13.435,4.89-20.63c-10.205,12.722-20.132,25.155-30.123,37.534
		c-6.438,7.978-14.658,6.957-19.815-2.681c-0.889,0.95-1.768,1.772-2.516,2.704c-8.551,10.661-17.28,21.181-25.515,32.094
		c-2.952,3.912-6.225,4.229-10.177,3.158c-4.279-1.16-7.5-3.924-7.576-8.594c-0.069-4.213,0.321-8.658,1.612-12.617
		c5.339-16.37,11.081-32.599,16.705-48.868c4.233-12.243,8.519-24.465,12.759-36.706c0.386-1.114,0.606-2.289,0.903-3.435
		c-0.539-0.346-1.078-0.693-1.617-1.039c-0.567,1.409-0.947,2.94-1.73,4.209c-16.187,26.288-32.414,52.551-48.654,78.806
		c-1.74,2.812-3.886,5.398-5.339,8.351c-2.17,4.411-5.647,4.253-9.482,3.459c-4.076-0.844-7.755-2.61-8.076-7.323
		c-0.275-4.042-0.343-8.418,0.865-12.178c5.505-17.145,11.443-34.142,17.322-51.157c4.283-12.395,8.722-24.733,13.072-37.103
		c0.439-1.249,0.746-2.547,1.114-3.822c-0.352-0.171-0.703-0.342-1.054-0.513c-6.465,10.948-13.099,21.795-19.361,32.864
		c-15.599,27.572-31.08,55.214-46.458,82.916c-1.789,3.223-3.504,5.399-7.485,4.547c-4.472-0.957-9.061-2.339-9.564-7.613
		c-0.441-4.617-0.231-9.667,1.173-14.015c6.166-19.094,12.853-38.009,19.382-56.978c4.261-12.379,8.574-24.739,13.273-38.287
		c-24.653,9.448-42.681,25.501-57.34,46.011c4.667,8.093,12.055,6.595,20.029,6.513c-4.368,6.136-9.865,9.007-15.778,11
		c-7.382,2.488-10.469,1.384-14.286-5.631c-2.463-4.527-3.938-9.608-5.857-14.441C30.902,309.865,30.709,308.605,30.517,307.346
		L30.517,307.346z M426.022,306.686L426.022,306.686c0.301,0.183,0.601,0.366,0.902,0.549c5.563-6.575,10.918-13.35,16.746-19.67
		c6.235-6.761,11.284-14.08,14.045-23.067c1.666-5.425-0.077-10.177-5.2-12.18c-3.152-1.233-5.174-0.553-6.478,2.971
		c-3.447,9.318-7.203,18.515-10.819,27.767C432.14,290.928,429.086,298.809,426.022,306.686L426.022,306.686z M290.057,306.448
		L290.057,306.448c12.822-11.652,24.872-22.499,30.456-38.732C306.486,276.916,293.785,287.221,290.057,306.448z"/>
	<path fill-rule="evenodd" clip-rule="evenodd" fill="#FFFFFF" d="M279.774,233.673c-6.824,9.887-12.985,18.94-19.34,27.847
		c-0.74,1.037-2.58,1.832-3.873,1.77c-4.767-0.23-9.517-0.867-14.734-1.399c1.996-7.981,3.796-15.422,5.779-22.812
		c0.263-0.981,1.326-2.238,2.231-2.449C259.318,234.418,268.888,232.873,279.774,233.673z"/>
	<path fill-rule="evenodd" clip-rule="evenodd" fill="#FFFFFF" d="M510.067,221.212c1.939-7.916,3.676-15.273,5.601-22.577
		c0.266-1.011,1.32-2.334,2.232-2.545c9.51-2.208,17.296-3.74,28.173-2.775c-5.972,8.758-9.992,17.589-16.725,26.486
		c-1.177,1.555-3.703,2.846-5.619,2.844C519.291,222.64,514.847,221.771,510.067,221.212z"/>
	<path fill-rule="evenodd" clip-rule="evenodd" fill="#F8A771" d="M535.347,432.508h10.306c4.584,0,6.871,2.187,6.871,6.539v19.584
		c0,4.341-2.275,6.517-6.836,6.539h-6.906v32.729h-3.435V432.508L535.347,432.508z M538.782,435.778v26.123h6.871
		c2.286,0,3.435-1.082,3.435-3.27v-19.584c0-2.176-1.149-3.27-3.435-3.27H538.782L538.782,435.778z M559.43,461.934h6.871
		c2.286,0,3.435-1.082,3.435-3.27v-19.617c0-2.176-1.149-3.27-3.435-3.27h-6.871V461.934L559.43,461.934z M566.301,432.508
		c4.584,0,6.871,2.187,6.871,6.539v19.617c0,2.187-0.575,3.816-1.724,4.91c1.149,1.082,1.724,2.723,1.724,4.899v29.426h-3.435
		v-29.426c0-2.176-1.149-3.27-3.435-3.27h-6.871v32.695h-3.435v-65.39H566.301L566.301,432.508z M590.383,439.047
		c0-2.176-1.149-3.27-3.435-3.27h-3.435c-2.286,0-3.435,1.094-3.435,3.27v52.312c0,2.176,1.149,3.27,3.435,3.27h3.435
		c2.286,0,3.435-1.093,3.435-3.27V439.047L590.383,439.047z M586.948,432.508c4.584,0,6.871,2.187,6.871,6.539v52.312
		c0,4.363-2.286,6.539-6.871,6.539h-3.435c-4.584,0-6.871-2.176-6.871-6.539v-52.312c0-4.352,2.286-6.539,6.871-6.539H586.948
		L586.948,432.508z M614.466,432.508v58.851c0,4.363-2.286,6.539-6.871,6.539h-3.435c-4.584,0-6.871-2.176-6.871-6.539v-13.078
		h3.435v13.078c0,2.176,1.149,3.27,3.435,3.27h3.435c2.286,0,3.435-1.093,3.435-3.27v-58.851H614.466L614.466,432.508z
		 M621.372,494.629h13.741v3.27h-17.177v-65.39h17.177v3.27h-13.741v26.123h10.306v3.27h-10.306V494.629L621.372,494.629z
		 M648.89,494.629c2.286,0,3.435-1.093,3.435-3.27v-13.078h3.435v13.078c0,4.363-2.286,6.539-6.871,6.539h-3.435
		c-4.584,0-6.871-2.176-6.871-6.539v-52.312c0-4.352,2.286-6.539,6.871-6.539h3.435c4.584,0,6.871,2.187,6.871,6.539v9.842h-3.435
		v-9.842c0-2.176-1.149-3.27-3.435-3.27h-3.435c-2.287,0-3.435,1.094-3.435,3.27v52.312c0,2.176,1.149,3.27,3.435,3.27H648.89
		L648.89,494.629z M669.608,435.778v62.121h-3.435v-62.121h-6.941v-3.27h17.177v3.27H669.608z"/>
	<path fill-rule="evenodd" clip-rule="evenodd" fill="#F8A771" d="M461.504,465.204l11.959-31.289l3.224,1.116l-11.537,30.173
		l11.537,30.173l-3.224,1.116L461.504,465.204L461.504,465.204z M480.533,497.899v-3.27h3.435v3.27H480.533L480.533,497.899z
		 M480.604,491.393v-58.885h3.435v58.885H480.604L480.604,491.393z M487.404,461.901h17.177v3.27h-17.177V461.901L487.404,461.901z
		 M508.052,461.901h17.177v3.27h-17.177V461.901L508.052,461.901z M693.878,461.901h17.177v3.27h-17.177V461.901L693.878,461.901z
		 M714.526,461.901h17.177v3.27h-17.177V461.901L714.526,461.901z M738.304,496.493l-3.236-1.116l11.549-30.173l-11.549-30.173
		l3.236-1.116l11.948,31.289L738.304,496.493z"/>
</g>
</svg>
